<svg xmlns="http://www.w3.org/2000/svg" xmlns:xlink="http://www.w3.org/1999/xlink" width="1920" zoomAndPan="magnify" viewBox="0 0 1440 809.999993" height="1080" preserveAspectRatio="xMidYMid meet" version="1.0"><defs><g/><clipPath id="3fd3166368"><path d="M 519.472656 484.699219 L 553.972656 484.699219 L 553.972656 519.199219 L 519.472656 519.199219 Z M 519.472656 484.699219 " clip-rule="nonzero"/></clipPath><clipPath id="a7b5305f5b"><path d="M 867.734375 486.007812 L 902.234375 486.007812 L 902.234375 520.507812 L 867.734375 520.507812 Z M 867.734375 486.007812 " clip-rule="nonzero"/></clipPath></defs><g fill="#ffffff" fill-opacity="1"><g transform="translate(556.308195, 464.61424)"><g><path d="M 0.816406 -143.324219 C 8.640625 -141.207031 7.828125 -132.726562 7.828125 -130.769531 L 7.828125 -13.371094 C 7.828125 -5.054688 9.785156 0 16.792969 0 L 56.742188 0 C 52.339844 -4.402344 51.035156 -9.945312 51.035156 -19.242188 L 51.035156 -159.140625 C 51.035156 -162.402344 50.875 -165.5 46.144531 -165.5 C 36.523438 -165.5 6.523438 -150.828125 0.164062 -147.726562 C -0.164062 -147.566406 -1.628906 -147.238281 -1.628906 -145.609375 C -1.628906 -143.652344 0.324219 -143.488281 0.816406 -143.324219 Z M 0.816406 -143.324219 "/></g></g></g><g fill="#ffffff" fill-opacity="1"><g transform="translate(614.676884, 464.61424)"><g><path d="M 0.816406 -143.324219 C 8.640625 -141.207031 7.828125 -132.726562 7.828125 -130.769531 L 7.828125 -13.371094 C 7.828125 -5.054688 9.785156 0 16.792969 0 L 56.742188 0 C 52.339844 -4.402344 51.035156 -9.945312 51.035156 -19.242188 L 51.035156 -159.140625 C 51.035156 -162.402344 50.875 -165.5 46.144531 -165.5 C 36.523438 -165.5 6.523438 -150.828125 0.164062 -147.726562 C -0.164062 -147.566406 -1.628906 -147.238281 -1.628906 -145.609375 C -1.628906 -143.652344 0.324219 -143.488281 0.816406 -143.324219 Z M 0.816406 -143.324219 "/></g></g></g><g fill="#ffffff" fill-opacity="1"><g transform="translate(673.045572, 464.61424)"><g><path d="M 0.816406 -114.140625 C 5.21875 -109.738281 6.523438 -104.191406 6.523438 -94.898438 L 6.523438 -67.015625 L 6.683594 -35.871094 C 6.683594 -18.914062 10.761719 2.445312 34.566406 2.445312 C 62.125 2.445312 65.546875 -20.21875 72.234375 -20.21875 C 72.886719 -20.21875 73.375 -20.21875 73.375 -16.304688 L 73.375 -13.535156 C 73.375 -5.21875 75.332031 0 82.34375 0 L 122.292969 0 C 117.890625 -4.402344 116.585938 -9.945312 116.585938 -19.242188 L 116.585938 -94.898438 C 116.585938 -104.191406 117.890625 -109.738281 122.292969 -114.140625 L 67.667969 -114.140625 C 72.070312 -109.738281 73.375 -104.191406 73.375 -94.898438 L 73.375 -50.546875 C 73.375 -32.449219 66.527344 -27.394531 59.027344 -27.394531 C 51.851562 -27.394531 49.730469 -34.40625 49.730469 -41.90625 L 49.730469 -94.898438 C 49.730469 -104.191406 51.035156 -109.738281 55.4375 -114.140625 Z M 0.816406 -114.140625 "/></g></g></g><g fill="#ffffff" fill-opacity="1"><g transform="translate(796.956737, 464.61424)"><g><path d="M 56.253906 0 C 51.851562 -4.402344 50.546875 -9.945312 50.546875 -19.242188 L 50.546875 -105.984375 L 66.039062 -105.984375 L 66.039062 -114.140625 L 45.003906 -114.140625 C 31.144531 -114.140625 21.359375 -127.347656 21.359375 -138.109375 C 21.359375 -143 25.601562 -145.609375 29.351562 -145.609375 C 45.65625 -145.609375 59.839844 -124.902344 70.277344 -124.902344 C 73.699219 -124.902344 75.003906 -129.464844 77.613281 -135.011719 C 80.386719 -140.71875 83.484375 -147.566406 83.484375 -153.273438 C 83.484375 -159.957031 66.199219 -165.5 53.480469 -165.5 C 20.054688 -165.5 7.335938 -141.859375 7.335938 -115.933594 L 7.335938 -19.242188 C 7.335938 -9.945312 6.03125 -4.402344 1.628906 0 Z M 56.253906 0 "/></g></g></g><g clip-path="url(#3fd3166368)"><path fill="#040303" d="M 553.96875 501.945312 C 541.03125 504.328125 539.101562 506.257812 536.71875 519.195312 C 534.339844 506.257812 532.40625 504.328125 519.472656 501.945312 C 532.40625 499.566406 534.339844 497.632812 536.71875 484.699219 C 539.101562 497.632812 541.03125 499.566406 553.96875 501.945312 Z M 553.96875 501.945312 " fill-opacity="1" fill-rule="nonzero"/></g><g clip-path="url(#a7b5305f5b)"><path fill="#040303" d="M 902.230469 503.257812 C 889.292969 505.640625 887.363281 507.570312 884.980469 520.507812 C 882.601562 507.570312 880.667969 505.640625 867.734375 503.257812 C 880.667969 500.875 882.601562 498.945312 884.980469 486.007812 C 887.363281 498.945312 889.292969 500.875 902.230469 503.257812 Z M 902.230469 503.257812 " fill-opacity="1" fill-rule="nonzero"/></g><g fill="#ffffff" fill-opacity="1"><g transform="translate(916.284756, 511.053354)"><g><path d="M 1.765625 0 L 15.175781 0 L 15.175781 -1.960938 L 6.496094 -1.960938 L 13.128906 -8.539062 C 14.363281 -9.769531 14.980469 -11.253906 14.980469 -12.992188 C 14.980469 -14.753906 14.335938 -16.238281 13.074219 -17.46875 C 11.785156 -18.703125 10.273438 -19.347656 8.539062 -19.347656 C 6.691406 -19.347656 5.152344 -18.675781 3.863281 -17.386719 C 2.605469 -16.097656 2.015625 -14.53125 2.101562 -12.710938 L 4.085938 -12.710938 C 3.976562 -13.886719 4.367188 -14.949219 5.261719 -15.929688 C 6.132812 -16.855469 7.195312 -17.332031 8.457031 -17.332031 C 9.660156 -17.332031 10.695312 -16.910156 11.5625 -16.070312 C 12.429688 -15.203125 12.878906 -14.195312 12.878906 -13.019531 C 12.878906 -11.785156 12.457031 -10.777344 11.617188 -9.9375 Z M 1.765625 0 "/></g></g></g><g fill="#ffffff" fill-opacity="1"><g transform="translate(933.502402, 511.053354)"><g><path d="M 9.351562 -16.828125 C 10.246094 -16.265625 10.890625 -15.398438 11.339844 -14.222656 C 11.871094 -12.710938 12.152344 -11.144531 12.152344 -9.464844 C 12.152344 -9.070312 12.121094 -8.59375 12.066406 -8.0625 C 11.84375 -5.992188 11.3125 -4.367188 10.441406 -3.21875 C 9.714844 -2.210938 8.847656 -1.734375 7.8125 -1.734375 C 6.636719 -1.734375 5.683594 -2.210938 4.957031 -3.191406 C 4.621094 -3.640625 4.367188 -4.117188 4.144531 -4.675781 C 3.917969 -5.234375 3.78125 -5.796875 3.667969 -6.382812 C 3.554688 -6.945312 3.472656 -7.503906 3.414062 -8.0625 C 3.359375 -8.59375 3.359375 -9.210938 3.359375 -9.910156 C 3.359375 -10.609375 3.445312 -11.507812 3.667969 -12.542969 C 3.78125 -13.101562 3.917969 -13.691406 4.144531 -14.25 C 4.339844 -14.8125 4.589844 -15.316406 4.925781 -15.761719 C 5.261719 -16.210938 5.65625 -16.546875 6.101562 -16.828125 C 6.550781 -17.105469 7.113281 -17.246094 7.726562 -17.246094 C 8.34375 -17.246094 8.902344 -17.105469 9.351562 -16.828125 Z M 7.839844 0.253906 C 10.078125 0.253906 11.757812 -0.839844 12.90625 -3.050781 C 13.804688 -4.816406 14.277344 -6.972656 14.277344 -9.546875 C 14.277344 -12.09375 13.804688 -14.25 12.90625 -16.015625 C 11.757812 -18.226562 10.078125 -19.347656 7.839844 -19.347656 C 5.570312 -19.347656 3.890625 -18.226562 2.742188 -16.015625 C 1.847656 -14.25 1.398438 -12.09375 1.398438 -9.546875 C 1.398438 -6.972656 1.847656 -4.816406 2.742188 -3.050781 C 3.890625 -0.839844 5.570312 0.253906 7.839844 0.253906 Z M 7.839844 0.253906 "/></g></g></g><g fill="#ffffff" fill-opacity="1"><g transform="translate(949.180269, 511.053354)"><g><path d="M 1.765625 0 L 15.175781 0 L 15.175781 -1.960938 L 6.496094 -1.960938 L 13.128906 -8.539062 C 14.363281 -9.769531 14.980469 -11.253906 14.980469 -12.992188 C 14.980469 -14.753906 14.335938 -16.238281 13.074219 -17.46875 C 11.785156 -18.703125 10.273438 -19.347656 8.539062 -19.347656 C 6.691406 -19.347656 5.152344 -18.675781 3.863281 -17.386719 C 2.605469 -16.097656 2.015625 -14.53125 2.101562 -12.710938 L 4.085938 -12.710938 C 3.976562 -13.886719 4.367188 -14.949219 5.261719 -15.929688 C 6.132812 -16.855469 7.195312 -17.332031 8.457031 -17.332031 C 9.660156 -17.332031 10.695312 -16.910156 11.5625 -16.070312 C 12.429688 -15.203125 12.878906 -14.195312 12.878906 -13.019531 C 12.878906 -11.785156 12.457031 -10.777344 11.617188 -9.9375 Z M 1.765625 0 "/></g></g></g><g fill="#ffffff" fill-opacity="1"><g transform="translate(966.397916, 511.053354)"><g><path d="M 1.765625 0 L 15.175781 0 L 15.175781 -1.960938 L 6.496094 -1.960938 L 13.128906 -8.539062 C 14.363281 -9.769531 14.980469 -11.253906 14.980469 -12.992188 C 14.980469 -14.753906 14.335938 -16.238281 13.074219 -17.46875 C 11.785156 -18.703125 10.273438 -19.347656 8.539062 -19.347656 C 6.691406 -19.347656 5.152344 -18.675781 3.863281 -17.386719 C 2.605469 -16.097656 2.015625 -14.53125 2.101562 -12.710938 L 4.085938 -12.710938 C 3.976562 -13.886719 4.367188 -14.949219 5.261719 -15.929688 C 6.132812 -16.855469 7.195312 -17.332031 8.457031 -17.332031 C 9.660156 -17.332031 10.695312 -16.910156 11.5625 -16.070312 C 12.429688 -15.203125 12.878906 -14.195312 12.878906 -13.019531 C 12.878906 -11.785156 12.457031 -10.777344 11.617188 -9.9375 Z M 1.765625 0 "/></g></g></g><g fill="#ffffff" fill-opacity="1"><g transform="translate(983.615562, 511.053354)"><g><path d="M 10.441406 -5.429688 L 10.441406 -7.027344 L 1.0625 -7.027344 L 1.0625 -5.429688 Z M 10.441406 -5.429688 "/></g></g></g><g fill="#ffffff" fill-opacity="1"><g transform="translate(995.093997, 511.053354)"><g><path d="M 1.765625 0 L 15.175781 0 L 15.175781 -1.960938 L 6.496094 -1.960938 L 13.128906 -8.539062 C 14.363281 -9.769531 14.980469 -11.253906 14.980469 -12.992188 C 14.980469 -14.753906 14.335938 -16.238281 13.074219 -17.46875 C 11.785156 -18.703125 10.273438 -19.347656 8.539062 -19.347656 C 6.691406 -19.347656 5.152344 -18.675781 3.863281 -17.386719 C 2.605469 -16.097656 2.015625 -14.53125 2.101562 -12.710938 L 4.085938 -12.710938 C 3.976562 -13.886719 4.367188 -14.949219 5.261719 -15.929688 C 6.132812 -16.855469 7.195312 -17.332031 8.457031 -17.332031 C 9.660156 -17.332031 10.695312 -16.910156 11.5625 -16.070312 C 12.429688 -15.203125 12.878906 -14.195312 12.878906 -13.019531 C 12.878906 -11.785156 12.457031 -10.777344 11.617188 -9.9375 Z M 1.765625 0 "/></g></g></g><g fill="#ffffff" fill-opacity="1"><g transform="translate(1012.311644, 511.053354)"><g><path d="M 9.351562 -16.828125 C 10.246094 -16.265625 10.890625 -15.398438 11.339844 -14.222656 C 11.871094 -12.710938 12.152344 -11.144531 12.152344 -9.464844 C 12.152344 -9.070312 12.121094 -8.59375 12.066406 -8.0625 C 11.84375 -5.992188 11.3125 -4.367188 10.441406 -3.21875 C 9.714844 -2.210938 8.847656 -1.734375 7.8125 -1.734375 C 6.636719 -1.734375 5.683594 -2.210938 4.957031 -3.191406 C 4.621094 -3.640625 4.367188 -4.117188 4.144531 -4.675781 C 3.917969 -5.234375 3.78125 -5.796875 3.667969 -6.382812 C 3.554688 -6.945312 3.472656 -7.503906 3.414062 -8.0625 C 3.359375 -8.59375 3.359375 -9.210938 3.359375 -9.910156 C 3.359375 -10.609375 3.445312 -11.507812 3.667969 -12.542969 C 3.78125 -13.101562 3.917969 -13.691406 4.144531 -14.25 C 4.339844 -14.8125 4.589844 -15.316406 4.925781 -15.761719 C 5.261719 -16.210938 5.65625 -16.546875 6.101562 -16.828125 C 6.550781 -17.105469 7.113281 -17.246094 7.726562 -17.246094 C 8.34375 -17.246094 8.902344 -17.105469 9.351562 -16.828125 Z M 7.839844 0.253906 C 10.078125 0.253906 11.757812 -0.839844 12.90625 -3.050781 C 13.804688 -4.816406 14.277344 -6.972656 14.277344 -9.546875 C 14.277344 -12.09375 13.804688 -14.25 12.90625 -16.015625 C 11.757812 -18.226562 10.078125 -19.347656 7.839844 -19.347656 C 5.570312 -19.347656 3.890625 -18.226562 2.742188 -16.015625 C 1.847656 -14.25 1.398438 -12.09375 1.398438 -9.546875 C 1.398438 -6.972656 1.847656 -4.816406 2.742188 -3.050781 C 3.890625 -0.839844 5.570312 0.253906 7.839844 0.253906 Z M 7.839844 0.253906 "/></g></g></g><g fill="#ffffff" fill-opacity="1"><g transform="translate(1027.989511, 511.053354)"><g><path d="M 1.765625 0 L 15.175781 0 L 15.175781 -1.960938 L 6.496094 -1.960938 L 13.128906 -8.539062 C 14.363281 -9.769531 14.980469 -11.253906 14.980469 -12.992188 C 14.980469 -14.753906 14.335938 -16.238281 13.074219 -17.46875 C 11.785156 -18.703125 10.273438 -19.347656 8.539062 -19.347656 C 6.691406 -19.347656 5.152344 -18.675781 3.863281 -17.386719 C 2.605469 -16.097656 2.015625 -14.53125 2.101562 -12.710938 L 4.085938 -12.710938 C 3.976562 -13.886719 4.367188 -14.949219 5.261719 -15.929688 C 6.132812 -16.855469 7.195312 -17.332031 8.457031 -17.332031 C 9.660156 -17.332031 10.695312 -16.910156 11.5625 -16.070312 C 12.429688 -15.203125 12.878906 -14.195312 12.878906 -13.019531 C 12.878906 -11.785156 12.457031 -10.777344 11.617188 -9.9375 Z M 1.765625 0 "/></g></g></g><g fill="#ffffff" fill-opacity="1"><g transform="translate(1045.207157, 511.053354)"><g><path d="M 9.96875 -0.195312 C 10.75 -0.53125 11.421875 -0.980469 12.011719 -1.539062 C 13.269531 -2.773438 13.914062 -4.253906 13.914062 -6.046875 C 13.914062 -7.8125 13.269531 -9.324219 11.984375 -10.554688 C 10.777344 -11.703125 9.265625 -12.347656 7.449219 -12.488281 L 6.605469 -11.984375 L 12.570312 -19.039062 L 2.324219 -19.039062 L 2.324219 -17.078125 L 8.59375 -17.078125 L 2.828125 -10.359375 L 4.3125 -9.15625 C 5.207031 -10.050781 6.269531 -10.5 7.503906 -10.5 C 8.734375 -10.5 9.769531 -10.050781 10.640625 -9.183594 C 11.507812 -8.316406 11.953125 -7.28125 11.953125 -6.074219 C 11.953125 -4.871094 11.507812 -3.835938 10.609375 -2.996094 C 10.21875 -2.605469 9.742188 -2.269531 9.210938 -2.042969 C 8.652344 -1.820312 8.007812 -1.707031 7.25 -1.707031 C 6.46875 -1.707031 5.710938 -1.960938 4.957031 -2.464844 C 4.171875 -2.96875 3.640625 -3.667969 3.332031 -4.5625 L 1.429688 -3.917969 C 1.847656 -2.660156 2.632812 -1.652344 3.78125 -0.867188 C 4.3125 -0.503906 4.898438 -0.222656 5.542969 -0.0273438 C 6.160156 0.195312 6.859375 0.28125 7.644531 0.28125 C 8.425781 0.28125 9.183594 0.140625 9.96875 -0.195312 Z M 9.96875 -0.195312 "/></g></g></g><g fill="#ffffff" fill-opacity="1"><g transform="translate(570.096708, 511.709226)"><g><path d="M 15.875 -6.300781 L 15.875 -19.039062 L 13.914062 -19.039062 L 13.914062 -6.019531 C 13.914062 -5.234375 13.773438 -4.589844 13.496094 -4.058594 C 12.683594 -2.492188 11.113281 -1.707031 8.792969 -1.707031 C 7.28125 -1.707031 6.074219 -2.042969 5.179688 -2.714844 C 4.144531 -3.472656 3.640625 -4.5625 3.640625 -6.019531 L 3.640625 -19.039062 L 1.679688 -19.039062 L 1.679688 -6.300781 C 1.679688 -4.226562 2.351562 -2.605469 3.695312 -1.429688 C 4.957031 -0.308594 6.664062 0.253906 8.792969 0.253906 C 10.890625 0.253906 12.570312 -0.308594 13.859375 -1.429688 C 15.203125 -2.605469 15.875 -4.226562 15.875 -6.300781 Z M 15.875 -6.300781 "/></g></g></g><g fill="#ffffff" fill-opacity="1"><g transform="translate(587.650319, 511.709226)"><g><path d="M 10.609375 0 L 12.570312 0 L 12.570312 -7.699219 C 12.570312 -9.128906 12.179688 -10.273438 11.449219 -11.144531 C 11.058594 -11.589844 10.609375 -11.925781 10.078125 -12.179688 C 9.519531 -12.429688 8.820312 -12.570312 7.953125 -12.570312 C 7.054688 -12.570312 6.300781 -12.320312 5.628906 -11.871094 C 4.984375 -11.449219 4.453125 -10.890625 4.058594 -10.191406 L 4.058594 -12.320312 L 2.101562 -12.320312 L 2.101562 0 L 4.058594 0 L 4.058594 -5.152344 C 4.058594 -6.71875 4.339844 -7.953125 4.925781 -8.875 C 5.261719 -9.378906 5.683594 -9.800781 6.214844 -10.136719 C 6.71875 -10.441406 7.417969 -10.609375 8.257812 -10.609375 C 9.097656 -10.609375 9.6875 -10.304688 10.050781 -9.742188 C 10.414062 -9.183594 10.609375 -8.484375 10.609375 -7.699219 Z M 10.609375 0 "/></g></g></g><g fill="#ffffff" fill-opacity="1"><g transform="translate(601.900375, 511.709226)"><g><path d="M 11.898438 -6.160156 C 11.898438 -4.957031 11.480469 -3.890625 10.640625 -3.023438 C 9.800781 -2.128906 8.761719 -1.679688 7.558594 -1.679688 C 6.328125 -1.679688 5.292969 -2.128906 4.453125 -3.023438 C 3.613281 -3.890625 3.21875 -4.957031 3.21875 -6.160156 C 3.21875 -7.335938 3.613281 -8.398438 4.453125 -9.296875 C 5.292969 -10.191406 6.328125 -10.640625 7.558594 -10.640625 C 8.761719 -10.640625 9.800781 -10.191406 10.640625 -9.296875 C 11.480469 -8.398438 11.898438 -7.335938 11.898438 -6.160156 Z M 13.859375 0 L 13.859375 -21 L 11.898438 -21 L 11.898438 -10.191406 C 11.785156 -10.359375 11.648438 -10.5 11.535156 -10.640625 C 10.359375 -11.925781 8.929688 -12.597656 7.25 -12.597656 C 5.542969 -12.597656 4.117188 -11.925781 2.941406 -10.640625 C 1.820312 -9.351562 1.261719 -7.867188 1.261719 -6.160156 C 1.261719 -4.421875 1.820312 -2.941406 2.941406 -1.679688 C 4.117188 -0.363281 5.542969 0.28125 7.25 0.28125 C 8.929688 0.28125 10.359375 -0.363281 11.535156 -1.679688 C 11.648438 -1.792969 11.785156 -1.933594 11.898438 -2.101562 L 11.898438 0 Z M 13.859375 0 "/></g></g></g><g fill="#ffffff" fill-opacity="1"><g transform="translate(617.8582, 511.709226)"><g><path d="M 14.140625 -6.4375 C 14.140625 -8.121094 13.46875 -9.574219 12.179688 -10.835938 C 10.917969 -12.039062 9.40625 -12.65625 7.699219 -12.65625 C 5.90625 -12.65625 4.394531 -12.011719 3.136719 -10.75 C 1.875 -9.492188 1.261719 -7.980469 1.261719 -6.214844 C 1.261719 -4.421875 1.875 -2.910156 3.136719 -1.679688 C 3.722656 -1.09375 4.394531 -0.644531 5.179688 -0.308594 C 5.964844 0.0273438 6.886719 0.195312 7.980469 0.195312 C 9.070312 0.195312 10.136719 -0.140625 11.199219 -0.8125 C 12.261719 -1.484375 13.046875 -2.4375 13.578125 -3.613281 L 11.339844 -3.613281 C 10.890625 -3.023438 10.359375 -2.574219 9.714844 -2.238281 C 9.070312 -1.902344 8.398438 -1.765625 7.699219 -1.765625 C 6.636719 -1.765625 5.683594 -2.101562 4.84375 -2.800781 C 4.003906 -3.472656 3.472656 -4.339844 3.304688 -5.402344 L 14.140625 -5.402344 Z M 12.066406 -7.082031 L 3.332031 -7.082031 C 3.445312 -7.585938 3.640625 -8.0625 3.917969 -8.511719 C 4.816406 -9.96875 6.074219 -10.695312 7.699219 -10.695312 C 8.734375 -10.695312 9.660156 -10.359375 10.472656 -9.6875 C 11.3125 -8.988281 11.816406 -8.121094 12.066406 -7.082031 Z M 12.066406 -7.082031 "/></g></g></g><g fill="#ffffff" fill-opacity="1"><g transform="translate(633.116114, 511.709226)"><g><path d="M 8.425781 -9.769531 L 8.425781 -12.320312 C 8.035156 -12.488281 7.617188 -12.570312 7.195312 -12.570312 C 5.796875 -12.570312 4.789062 -11.785156 4.144531 -10.273438 L 4.058594 -9.769531 L 4.058594 -12.320312 L 2.101562 -12.320312 L 2.101562 0 L 4.058594 0 L 4.058594 -6.160156 C 4.058594 -7.167969 4.285156 -8.0625 4.757812 -8.875 C 4.984375 -9.296875 5.292969 -9.660156 5.65625 -9.9375 C 6.019531 -10.21875 6.46875 -10.386719 6.972656 -10.386719 C 7.476562 -10.386719 7.953125 -10.164062 8.425781 -9.769531 Z M 8.425781 -9.769531 "/></g></g></g><g fill="#ffffff" fill-opacity="1"><g transform="translate(641.822928, 511.709226)"><g><path d="M 12.066406 -6.160156 C 12.066406 -4.957031 11.648438 -3.890625 10.808594 -3.023438 C 9.96875 -2.128906 8.929688 -1.679688 7.726562 -1.679688 C 6.523438 -1.679688 5.488281 -2.128906 4.648438 -3.023438 C 3.808594 -3.890625 3.386719 -4.925781 3.386719 -6.160156 C 3.386719 -7.363281 3.808594 -8.398438 4.648438 -9.296875 C 5.488281 -10.191406 6.523438 -10.640625 7.726562 -10.640625 C 8.929688 -10.640625 9.96875 -10.191406 10.808594 -9.296875 C 11.648438 -8.398438 12.066406 -7.335938 12.066406 -6.160156 Z M 3.332031 1.679688 L 1.316406 1.679688 C 1.539062 2.996094 2.128906 4.144531 3.136719 5.125 C 4.367188 6.382812 5.878906 7 7.644531 7 C 9.378906 7 10.890625 6.382812 12.152344 5.125 C 13.382812 3.890625 14.027344 2.378906 14.027344 0.617188 L 14.027344 -12.320312 L 12.066406 -12.320312 L 12.066406 -10.246094 C 11.953125 -10.359375 11.84375 -10.5 11.730469 -10.640625 C 10.5 -11.925781 9.070312 -12.597656 7.449219 -12.597656 C 5.710938 -12.597656 4.285156 -11.925781 3.109375 -10.640625 C 1.988281 -9.351562 1.429688 -7.867188 1.429688 -6.160156 C 1.429688 -4.421875 1.988281 -2.941406 3.109375 -1.679688 C 4.285156 -0.363281 5.710938 0.28125 7.449219 0.28125 C 9.128906 0.28125 10.554688 -0.363281 11.730469 -1.679688 C 11.84375 -1.792969 11.953125 -1.933594 12.066406 -2.042969 L 12.066406 0.617188 C 12.066406 1.847656 11.617188 2.882812 10.75 3.75 C 9.882812 4.621094 8.847656 5.039062 7.644531 5.039062 C 6.410156 5.039062 5.375 4.621094 4.507812 3.75 C 3.890625 3.136719 3.5 2.464844 3.332031 1.679688 Z M 3.332031 1.679688 "/></g></g></g><g fill="#ffffff" fill-opacity="1"><g transform="translate(657.948728, 511.709226)"><g><path d="M 8.425781 -9.769531 L 8.425781 -12.320312 C 8.035156 -12.488281 7.617188 -12.570312 7.195312 -12.570312 C 5.796875 -12.570312 4.789062 -11.785156 4.144531 -10.273438 L 4.058594 -9.769531 L 4.058594 -12.320312 L 2.101562 -12.320312 L 2.101562 0 L 4.058594 0 L 4.058594 -6.160156 C 4.058594 -7.167969 4.285156 -8.0625 4.757812 -8.875 C 4.984375 -9.296875 5.292969 -9.660156 5.65625 -9.9375 C 6.019531 -10.21875 6.46875 -10.386719 6.972656 -10.386719 C 7.476562 -10.386719 7.953125 -10.164062 8.425781 -9.769531 Z M 8.425781 -9.769531 "/></g></g></g><g fill="#ffffff" fill-opacity="1"><g transform="translate(666.655541, 511.709226)"><g><path d="M 11.898438 -6.160156 C 11.898438 -4.957031 11.480469 -3.890625 10.640625 -3.023438 C 9.800781 -2.128906 8.761719 -1.679688 7.558594 -1.679688 C 6.328125 -1.679688 5.292969 -2.128906 4.453125 -3.023438 C 3.613281 -3.890625 3.21875 -4.957031 3.21875 -6.160156 C 3.21875 -7.335938 3.613281 -8.398438 4.453125 -9.296875 C 5.292969 -10.191406 6.328125 -10.640625 7.558594 -10.640625 C 8.761719 -10.640625 9.800781 -10.191406 10.640625 -9.296875 C 11.480469 -8.398438 11.898438 -7.335938 11.898438 -6.160156 Z M 13.859375 0 L 13.859375 -12.320312 L 11.898438 -12.320312 L 11.898438 -10.191406 C 11.785156 -10.359375 11.648438 -10.5 11.535156 -10.640625 C 10.359375 -11.925781 8.929688 -12.597656 7.25 -12.597656 C 5.542969 -12.597656 4.117188 -11.925781 2.941406 -10.640625 C 1.820312 -9.351562 1.261719 -7.867188 1.261719 -6.160156 C 1.261719 -4.421875 1.820312 -2.941406 2.941406 -1.679688 C 4.117188 -0.363281 5.542969 0.28125 7.25 0.28125 C 8.929688 0.28125 10.359375 -0.363281 11.535156 -1.679688 C 11.648438 -1.792969 11.785156 -1.933594 11.898438 -2.101562 L 11.898438 0 Z M 13.859375 0 "/></g></g></g><g fill="#ffffff" fill-opacity="1"><g transform="translate(682.613365, 511.709226)"><g><path d="M 11.898438 -6.160156 C 11.898438 -4.957031 11.480469 -3.890625 10.640625 -3.023438 C 9.800781 -2.128906 8.761719 -1.679688 7.558594 -1.679688 C 6.328125 -1.679688 5.292969 -2.128906 4.453125 -3.023438 C 3.613281 -3.890625 3.21875 -4.957031 3.21875 -6.160156 C 3.21875 -7.335938 3.613281 -8.398438 4.453125 -9.296875 C 5.292969 -10.191406 6.328125 -10.640625 7.558594 -10.640625 C 8.761719 -10.640625 9.800781 -10.191406 10.640625 -9.296875 C 11.480469 -8.398438 11.898438 -7.335938 11.898438 -6.160156 Z M 13.859375 0 L 13.859375 -21 L 11.898438 -21 L 11.898438 -10.191406 C 11.785156 -10.359375 11.648438 -10.5 11.535156 -10.640625 C 10.359375 -11.925781 8.929688 -12.597656 7.25 -12.597656 C 5.542969 -12.597656 4.117188 -11.925781 2.941406 -10.640625 C 1.820312 -9.351562 1.261719 -7.867188 1.261719 -6.160156 C 1.261719 -4.421875 1.820312 -2.941406 2.941406 -1.679688 C 4.117188 -0.363281 5.542969 0.28125 7.25 0.28125 C 8.929688 0.28125 10.359375 -0.363281 11.535156 -1.679688 C 11.648438 -1.792969 11.785156 -1.933594 11.898438 -2.101562 L 11.898438 0 Z M 13.859375 0 "/></g></g></g><g fill="#ffffff" fill-opacity="1"><g transform="translate(698.571189, 511.709226)"><g><path d="M 10.609375 -2.101562 L 10.609375 0 L 12.570312 0 L 12.570312 -12.320312 L 10.609375 -12.320312 L 10.609375 -7.167969 C 10.609375 -5.429688 10.273438 -4.117188 9.632812 -3.136719 C 9.015625 -2.183594 7.921875 -1.707031 6.410156 -1.707031 C 5.570312 -1.707031 4.957031 -1.988281 4.589844 -2.546875 C 4.226562 -3.109375 4.058594 -3.808594 4.058594 -4.621094 L 4.058594 -12.320312 L 2.101562 -12.320312 L 2.101562 -4.621094 C 2.101562 -3.191406 2.464844 -2.015625 3.246094 -1.09375 C 4.03125 -0.195312 5.09375 0.253906 6.496094 0.253906 C 8.316406 0.253906 9.6875 -0.53125 10.609375 -2.101562 Z M 10.609375 -2.101562 "/></g></g></g><g fill="#ffffff" fill-opacity="1"><g transform="translate(712.821246, 511.709226)"><g><path d="M 11.898438 -6.160156 C 11.898438 -4.957031 11.480469 -3.890625 10.640625 -3.023438 C 9.800781 -2.128906 8.761719 -1.679688 7.558594 -1.679688 C 6.328125 -1.679688 5.292969 -2.128906 4.453125 -3.023438 C 3.613281 -3.890625 3.21875 -4.957031 3.21875 -6.160156 C 3.21875 -7.335938 3.613281 -8.398438 4.453125 -9.296875 C 5.292969 -10.191406 6.328125 -10.640625 7.558594 -10.640625 C 8.761719 -10.640625 9.800781 -10.191406 10.640625 -9.296875 C 11.480469 -8.398438 11.898438 -7.335938 11.898438 -6.160156 Z M 13.859375 0 L 13.859375 -12.320312 L 11.898438 -12.320312 L 11.898438 -10.191406 C 11.785156 -10.359375 11.648438 -10.5 11.535156 -10.640625 C 10.359375 -11.925781 8.929688 -12.597656 7.25 -12.597656 C 5.542969 -12.597656 4.117188 -11.925781 2.941406 -10.640625 C 1.820312 -9.351562 1.261719 -7.867188 1.261719 -6.160156 C 1.261719 -4.421875 1.820312 -2.941406 2.941406 -1.679688 C 4.117188 -0.363281 5.542969 0.28125 7.25 0.28125 C 8.929688 0.28125 10.359375 -0.363281 11.535156 -1.679688 C 11.648438 -1.792969 11.785156 -1.933594 11.898438 -2.101562 L 11.898438 0 Z M 13.859375 0 "/></g></g></g><g fill="#ffffff" fill-opacity="1"><g transform="translate(728.77907, 511.709226)"><g><path d="M 0.558594 -10.5 L 3.640625 -10.5 L 3.640625 0 L 5.597656 0 L 5.597656 -10.5 L 8.652344 -10.5 L 8.652344 -12.320312 L 5.597656 -12.320312 L 5.597656 -17.105469 L 3.640625 -17.105469 L 3.640625 -12.320312 L 0.558594 -12.320312 Z M 0.558594 -10.5 "/></g></g></g><g fill="#ffffff" fill-opacity="1"><g transform="translate(737.989812, 511.709226)"><g><path d="M 14.140625 -6.4375 C 14.140625 -8.121094 13.46875 -9.574219 12.179688 -10.835938 C 10.917969 -12.039062 9.40625 -12.65625 7.699219 -12.65625 C 5.90625 -12.65625 4.394531 -12.011719 3.136719 -10.75 C 1.875 -9.492188 1.261719 -7.980469 1.261719 -6.214844 C 1.261719 -4.421875 1.875 -2.910156 3.136719 -1.679688 C 3.722656 -1.09375 4.394531 -0.644531 5.179688 -0.308594 C 5.964844 0.0273438 6.886719 0.195312 7.980469 0.195312 C 9.070312 0.195312 10.136719 -0.140625 11.199219 -0.8125 C 12.261719 -1.484375 13.046875 -2.4375 13.578125 -3.613281 L 11.339844 -3.613281 C 10.890625 -3.023438 10.359375 -2.574219 9.714844 -2.238281 C 9.070312 -1.902344 8.398438 -1.765625 7.699219 -1.765625 C 6.636719 -1.765625 5.683594 -2.101562 4.84375 -2.800781 C 4.003906 -3.472656 3.472656 -4.339844 3.304688 -5.402344 L 14.140625 -5.402344 Z M 12.066406 -7.082031 L 3.332031 -7.082031 C 3.445312 -7.585938 3.640625 -8.0625 3.917969 -8.511719 C 4.816406 -9.96875 6.074219 -10.695312 7.699219 -10.695312 C 8.734375 -10.695312 9.660156 -10.359375 10.472656 -9.6875 C 11.3125 -8.988281 11.816406 -8.121094 12.066406 -7.082031 Z M 12.066406 -7.082031 "/></g></g></g><g fill="#ffffff" fill-opacity="1"><g transform="translate(753.247727, 511.709226)"><g/></g></g><g fill="#ffffff" fill-opacity="1"><g transform="translate(760.806698, 511.709226)"><g><path d="M 13.410156 -17.21875 L 13.410156 -19.039062 L 2.101562 -19.039062 L 2.101562 0 L 4.058594 0 L 4.058594 -8.59375 L 13.128906 -8.59375 L 13.128906 -10.441406 L 4.058594 -10.441406 L 4.058594 -17.21875 Z M 13.410156 -17.21875 "/></g></g></g><g fill="#ffffff" fill-opacity="1"><g transform="translate(774.776798, 511.709226)"><g><path d="M 14.140625 -6.4375 C 14.140625 -8.121094 13.46875 -9.574219 12.179688 -10.835938 C 10.917969 -12.039062 9.40625 -12.65625 7.699219 -12.65625 C 5.90625 -12.65625 4.394531 -12.011719 3.136719 -10.75 C 1.875 -9.492188 1.261719 -7.980469 1.261719 -6.214844 C 1.261719 -4.421875 1.875 -2.910156 3.136719 -1.679688 C 3.722656 -1.09375 4.394531 -0.644531 5.179688 -0.308594 C 5.964844 0.0273438 6.886719 0.195312 7.980469 0.195312 C 9.070312 0.195312 10.136719 -0.140625 11.199219 -0.8125 C 12.261719 -1.484375 13.046875 -2.4375 13.578125 -3.613281 L 11.339844 -3.613281 C 10.890625 -3.023438 10.359375 -2.574219 9.714844 -2.238281 C 9.070312 -1.902344 8.398438 -1.765625 7.699219 -1.765625 C 6.636719 -1.765625 5.683594 -2.101562 4.84375 -2.800781 C 4.003906 -3.472656 3.472656 -4.339844 3.304688 -5.402344 L 14.140625 -5.402344 Z M 12.066406 -7.082031 L 3.332031 -7.082031 C 3.445312 -7.585938 3.640625 -8.0625 3.917969 -8.511719 C 4.816406 -9.96875 6.074219 -10.695312 7.699219 -10.695312 C 8.734375 -10.695312 9.660156 -10.359375 10.472656 -9.6875 C 11.3125 -8.988281 11.816406 -8.121094 12.066406 -7.082031 Z M 12.066406 -7.082031 "/></g></g></g><g fill="#ffffff" fill-opacity="1"><g transform="translate(790.034701, 511.709226)"><g><path d="M 4.058594 0 L 4.058594 -21 L 2.101562 -21 L 2.101562 0 Z M 4.058594 0 "/></g></g></g><g fill="#ffffff" fill-opacity="1"><g transform="translate(796.193865, 511.709226)"><g><path d="M 4.058594 0 L 4.058594 -21 L 2.101562 -21 L 2.101562 0 Z M 4.058594 0 "/></g></g></g><g fill="#ffffff" fill-opacity="1"><g transform="translate(802.353029, 511.709226)"><g><path d="M 12.179688 -6.214844 C 12.179688 -4.984375 11.730469 -3.949219 10.863281 -3.078125 C 9.96875 -2.183594 8.929688 -1.765625 7.699219 -1.765625 C 6.46875 -1.765625 5.402344 -2.183594 4.535156 -3.078125 C 3.640625 -3.949219 3.21875 -4.984375 3.21875 -6.214844 C 3.21875 -7.449219 3.640625 -8.484375 4.535156 -9.378906 C 5.402344 -10.246094 6.46875 -10.695312 7.699219 -10.695312 C 8.929688 -10.695312 9.96875 -10.246094 10.863281 -9.378906 C 11.730469 -8.484375 12.179688 -7.449219 12.179688 -6.214844 Z M 14.140625 -6.214844 C 14.140625 -7.980469 13.496094 -9.492188 12.234375 -10.75 C 10.976562 -12.011719 9.464844 -12.65625 7.699219 -12.65625 C 5.90625 -12.65625 4.394531 -12.011719 3.136719 -10.75 C 1.875 -9.492188 1.261719 -7.980469 1.261719 -6.214844 C 1.261719 -4.421875 1.875 -2.910156 3.136719 -1.679688 C 4.394531 -0.421875 5.933594 0.195312 7.699219 0.195312 C 9.433594 0.195312 10.976562 -0.421875 12.234375 -1.679688 C 13.496094 -2.910156 14.140625 -4.421875 14.140625 -6.214844 Z M 14.140625 -6.214844 "/></g></g></g><g fill="#ffffff" fill-opacity="1"><g transform="translate(817.750917, 511.709226)"><g><path d="M 14.140625 1.566406 L 19.988281 -12.320312 L 17.804688 -12.320312 L 14.109375 -2.828125 L 10.136719 -12.960938 L 6.160156 -2.828125 L 2.464844 -12.320312 L 0.28125 -12.320312 L 6.1875 1.566406 L 10.136719 -8.371094 Z M 14.140625 1.566406 "/></g></g></g><g fill="#ffffff" fill-opacity="1"><g transform="translate(838.020142, 511.709226)"><g><path d="M 3.863281 -1.734375 C 3.386719 -2.070312 3.023438 -2.632812 2.828125 -3.445312 L 0.757812 -3.445312 C 1.175781 -0.894531 2.800781 0.363281 5.65625 0.363281 C 6.328125 0.363281 6.945312 0.308594 7.53125 0.140625 C 8.121094 -0.0273438 8.625 -0.253906 9.097656 -0.558594 C 10.050781 -1.203125 10.527344 -2.183594 10.527344 -3.5 C 10.527344 -4.84375 9.910156 -5.796875 8.625 -6.410156 C 8.089844 -6.664062 7.503906 -6.859375 6.859375 -7 C 6.242188 -7.140625 5.65625 -7.308594 5.125 -7.476562 C 4.5625 -7.644531 4.117188 -7.867188 3.75 -8.121094 C 3.386719 -8.371094 3.191406 -8.761719 3.191406 -9.324219 C 3.191406 -9.882812 3.414062 -10.304688 3.863281 -10.554688 C 4.3125 -10.835938 4.84375 -10.976562 5.429688 -10.976562 C 6.046875 -10.976562 6.578125 -10.835938 7 -10.609375 C 7.417969 -10.386719 7.753906 -9.9375 7.953125 -9.265625 L 10.050781 -9.265625 C 9.800781 -10.5 9.265625 -11.367188 8.484375 -11.84375 C 7.671875 -12.347656 6.691406 -12.597656 5.488281 -12.597656 C 4.3125 -12.597656 3.277344 -12.261719 2.40625 -11.648438 C 1.566406 -11.003906 1.121094 -10.078125 1.121094 -8.847656 C 1.121094 -8.257812 1.289062 -7.726562 1.597656 -7.28125 C 1.933594 -6.804688 2.40625 -6.4375 3.023438 -6.160156 C 3.582031 -5.90625 4.171875 -5.710938 4.789062 -5.542969 C 5.402344 -5.402344 5.992188 -5.234375 6.550781 -5.066406 C 7.8125 -4.648438 8.457031 -4.03125 8.457031 -3.246094 C 8.457031 -1.902344 7.558594 -1.261719 5.765625 -1.261719 C 5.011719 -1.261719 4.367188 -1.398438 3.863281 -1.734375 Z M 3.863281 -1.734375 "/></g></g></g><g fill="#ffffff" fill-opacity="1"><g transform="translate(347.533495, 510.397458)"><g><path d="M 4.058594 -1.960938 L 4.058594 -19.039062 L 2.101562 -19.039062 L 2.101562 0 L 10.863281 0 L 10.863281 -1.960938 Z M 4.058594 -1.960938 "/></g></g></g><g fill="#ffffff" fill-opacity="1"><g transform="translate(358.955934, 510.397458)"><g><path d="M 14.140625 -6.4375 C 14.140625 -8.121094 13.46875 -9.574219 12.179688 -10.835938 C 10.917969 -12.039062 9.40625 -12.65625 7.699219 -12.65625 C 5.90625 -12.65625 4.394531 -12.011719 3.136719 -10.75 C 1.875 -9.492188 1.261719 -7.980469 1.261719 -6.214844 C 1.261719 -4.421875 1.875 -2.910156 3.136719 -1.679688 C 3.722656 -1.09375 4.394531 -0.644531 5.179688 -0.308594 C 5.964844 0.0273438 6.886719 0.195312 7.980469 0.195312 C 9.070312 0.195312 10.136719 -0.140625 11.199219 -0.8125 C 12.261719 -1.484375 13.046875 -2.4375 13.578125 -3.613281 L 11.339844 -3.613281 C 10.890625 -3.023438 10.359375 -2.574219 9.714844 -2.238281 C 9.070312 -1.902344 8.398438 -1.765625 7.699219 -1.765625 C 6.636719 -1.765625 5.683594 -2.101562 4.84375 -2.800781 C 4.003906 -3.472656 3.472656 -4.339844 3.304688 -5.402344 L 14.140625 -5.402344 Z M 12.066406 -7.082031 L 3.332031 -7.082031 C 3.445312 -7.585938 3.640625 -8.0625 3.917969 -8.511719 C 4.816406 -9.96875 6.074219 -10.695312 7.699219 -10.695312 C 8.734375 -10.695312 9.660156 -10.359375 10.472656 -9.6875 C 11.3125 -8.988281 11.816406 -8.121094 12.066406 -7.082031 Z M 12.066406 -7.082031 "/></g></g></g><g fill="#ffffff" fill-opacity="1"><g transform="translate(374.213848, 510.397458)"><g><path d="M 11.898438 -6.160156 C 11.898438 -4.957031 11.480469 -3.890625 10.640625 -3.023438 C 9.800781 -2.128906 8.761719 -1.679688 7.558594 -1.679688 C 6.328125 -1.679688 5.292969 -2.128906 4.453125 -3.023438 C 3.613281 -3.890625 3.21875 -4.957031 3.21875 -6.160156 C 3.21875 -7.335938 3.613281 -8.398438 4.453125 -9.296875 C 5.292969 -10.191406 6.328125 -10.640625 7.558594 -10.640625 C 8.761719 -10.640625 9.800781 -10.191406 10.640625 -9.296875 C 11.480469 -8.398438 11.898438 -7.335938 11.898438 -6.160156 Z M 13.859375 0 L 13.859375 -12.320312 L 11.898438 -12.320312 L 11.898438 -10.191406 C 11.785156 -10.359375 11.648438 -10.5 11.535156 -10.640625 C 10.359375 -11.925781 8.929688 -12.597656 7.25 -12.597656 C 5.542969 -12.597656 4.117188 -11.925781 2.941406 -10.640625 C 1.820312 -9.351562 1.261719 -7.867188 1.261719 -6.160156 C 1.261719 -4.421875 1.820312 -2.941406 2.941406 -1.679688 C 4.117188 -0.363281 5.542969 0.28125 7.25 0.28125 C 8.929688 0.28125 10.359375 -0.363281 11.535156 -1.679688 C 11.648438 -1.792969 11.785156 -1.933594 11.898438 -2.101562 L 11.898438 0 Z M 13.859375 0 "/></g></g></g><g fill="#ffffff" fill-opacity="1"><g transform="translate(390.171672, 510.397458)"><g><path d="M 8.425781 -9.769531 L 8.425781 -12.320312 C 8.035156 -12.488281 7.617188 -12.570312 7.195312 -12.570312 C 5.796875 -12.570312 4.789062 -11.785156 4.144531 -10.273438 L 4.058594 -9.769531 L 4.058594 -12.320312 L 2.101562 -12.320312 L 2.101562 0 L 4.058594 0 L 4.058594 -6.160156 C 4.058594 -7.167969 4.285156 -8.0625 4.757812 -8.875 C 4.984375 -9.296875 5.292969 -9.660156 5.65625 -9.9375 C 6.019531 -10.21875 6.46875 -10.386719 6.972656 -10.386719 C 7.476562 -10.386719 7.953125 -10.164062 8.425781 -9.769531 Z M 8.425781 -9.769531 "/></g></g></g><g fill="#ffffff" fill-opacity="1"><g transform="translate(398.878486, 510.397458)"><g><path d="M 10.609375 0 L 12.570312 0 L 12.570312 -7.699219 C 12.570312 -9.128906 12.179688 -10.273438 11.449219 -11.144531 C 11.058594 -11.589844 10.609375 -11.925781 10.078125 -12.179688 C 9.519531 -12.429688 8.820312 -12.570312 7.953125 -12.570312 C 7.054688 -12.570312 6.300781 -12.320312 5.628906 -11.871094 C 4.984375 -11.449219 4.453125 -10.890625 4.058594 -10.191406 L 4.058594 -12.320312 L 2.101562 -12.320312 L 2.101562 0 L 4.058594 0 L 4.058594 -5.152344 C 4.058594 -6.71875 4.339844 -7.953125 4.925781 -8.875 C 5.261719 -9.378906 5.683594 -9.800781 6.214844 -10.136719 C 6.71875 -10.441406 7.417969 -10.609375 8.257812 -10.609375 C 9.097656 -10.609375 9.6875 -10.304688 10.050781 -9.742188 C 10.414062 -9.183594 10.609375 -8.484375 10.609375 -7.699219 Z M 10.609375 0 "/></g></g></g><g fill="#ffffff" fill-opacity="1"><g transform="translate(413.128542, 510.397458)"><g><path d="M 4.085938 -16.574219 C 3.835938 -16.796875 3.527344 -16.9375 3.191406 -16.9375 C 2.855469 -16.9375 2.546875 -16.796875 2.324219 -16.574219 C 2.070312 -16.324219 1.960938 -16.015625 1.960938 -15.679688 C 1.960938 -15.34375 2.070312 -15.035156 2.324219 -14.8125 C 2.546875 -14.558594 2.855469 -14.445312 3.191406 -14.445312 C 3.527344 -14.445312 3.835938 -14.558594 4.085938 -14.8125 C 4.3125 -15.035156 4.453125 -15.34375 4.453125 -15.679688 C 4.453125 -16.015625 4.3125 -16.324219 4.085938 -16.574219 Z M 4.199219 0 L 4.199219 -12.320312 L 2.238281 -12.320312 L 2.238281 0 Z M 4.199219 0 "/></g></g></g><g fill="#ffffff" fill-opacity="1"><g transform="translate(419.539671, 510.397458)"><g><path d="M 10.609375 0 L 12.570312 0 L 12.570312 -7.699219 C 12.570312 -9.128906 12.179688 -10.273438 11.449219 -11.144531 C 11.058594 -11.589844 10.609375 -11.925781 10.078125 -12.179688 C 9.519531 -12.429688 8.820312 -12.570312 7.953125 -12.570312 C 7.054688 -12.570312 6.300781 -12.320312 5.628906 -11.871094 C 4.984375 -11.449219 4.453125 -10.890625 4.058594 -10.191406 L 4.058594 -12.320312 L 2.101562 -12.320312 L 2.101562 0 L 4.058594 0 L 4.058594 -5.152344 C 4.058594 -6.71875 4.339844 -7.953125 4.925781 -8.875 C 5.261719 -9.378906 5.683594 -9.800781 6.214844 -10.136719 C 6.71875 -10.441406 7.417969 -10.609375 8.257812 -10.609375 C 9.097656 -10.609375 9.6875 -10.304688 10.050781 -9.742188 C 10.414062 -9.183594 10.609375 -8.484375 10.609375 -7.699219 Z M 10.609375 0 "/></g></g></g><g fill="#ffffff" fill-opacity="1"><g transform="translate(433.789727, 510.397458)"><g><path d="M 12.066406 -6.160156 C 12.066406 -4.957031 11.648438 -3.890625 10.808594 -3.023438 C 9.96875 -2.128906 8.929688 -1.679688 7.726562 -1.679688 C 6.523438 -1.679688 5.488281 -2.128906 4.648438 -3.023438 C 3.808594 -3.890625 3.386719 -4.925781 3.386719 -6.160156 C 3.386719 -7.363281 3.808594 -8.398438 4.648438 -9.296875 C 5.488281 -10.191406 6.523438 -10.640625 7.726562 -10.640625 C 8.929688 -10.640625 9.96875 -10.191406 10.808594 -9.296875 C 11.648438 -8.398438 12.066406 -7.335938 12.066406 -6.160156 Z M 3.332031 1.679688 L 1.316406 1.679688 C 1.539062 2.996094 2.128906 4.144531 3.136719 5.125 C 4.367188 6.382812 5.878906 7 7.644531 7 C 9.378906 7 10.890625 6.382812 12.152344 5.125 C 13.382812 3.890625 14.027344 2.378906 14.027344 0.617188 L 14.027344 -12.320312 L 12.066406 -12.320312 L 12.066406 -10.246094 C 11.953125 -10.359375 11.84375 -10.5 11.730469 -10.640625 C 10.5 -11.925781 9.070312 -12.597656 7.449219 -12.597656 C 5.710938 -12.597656 4.285156 -11.925781 3.109375 -10.640625 C 1.988281 -9.351562 1.429688 -7.867188 1.429688 -6.160156 C 1.429688 -4.421875 1.988281 -2.941406 3.109375 -1.679688 C 4.285156 -0.363281 5.710938 0.28125 7.449219 0.28125 C 9.128906 0.28125 10.554688 -0.363281 11.730469 -1.679688 C 11.84375 -1.792969 11.953125 -1.933594 12.066406 -2.042969 L 12.066406 0.617188 C 12.066406 1.847656 11.617188 2.882812 10.75 3.75 C 9.882812 4.621094 8.847656 5.039062 7.644531 5.039062 C 6.410156 5.039062 5.375 4.621094 4.507812 3.75 C 3.890625 3.136719 3.5 2.464844 3.332031 1.679688 Z M 3.332031 1.679688 "/></g></g></g><g fill="#ffffff" fill-opacity="1"><g transform="translate(449.915527, 510.397458)"><g/></g></g><g fill="#ffffff" fill-opacity="1"><g transform="translate(457.474498, 510.397458)"><g><path d="M 4.058594 -1.960938 L 4.058594 -19.039062 L 2.101562 -19.039062 L 2.101562 0 L 10.863281 0 L 10.863281 -1.960938 Z M 4.058594 -1.960938 "/></g></g></g><g fill="#ffffff" fill-opacity="1"><g transform="translate(468.896937, 510.397458)"><g><path d="M 11.898438 -6.160156 C 11.898438 -4.957031 11.480469 -3.890625 10.640625 -3.023438 C 9.800781 -2.128906 8.761719 -1.679688 7.558594 -1.679688 C 6.328125 -1.679688 5.292969 -2.128906 4.453125 -3.023438 C 3.613281 -3.890625 3.21875 -4.957031 3.21875 -6.160156 C 3.21875 -7.335938 3.613281 -8.398438 4.453125 -9.296875 C 5.292969 -10.191406 6.328125 -10.640625 7.558594 -10.640625 C 8.761719 -10.640625 9.800781 -10.191406 10.640625 -9.296875 C 11.480469 -8.398438 11.898438 -7.335938 11.898438 -6.160156 Z M 13.859375 0 L 13.859375 -12.320312 L 11.898438 -12.320312 L 11.898438 -10.191406 C 11.785156 -10.359375 11.648438 -10.5 11.535156 -10.640625 C 10.359375 -11.925781 8.929688 -12.597656 7.25 -12.597656 C 5.542969 -12.597656 4.117188 -11.925781 2.941406 -10.640625 C 1.820312 -9.351562 1.261719 -7.867188 1.261719 -6.160156 C 1.261719 -4.421875 1.820312 -2.941406 2.941406 -1.679688 C 4.117188 -0.363281 5.542969 0.28125 7.25 0.28125 C 8.929688 0.28125 10.359375 -0.363281 11.535156 -1.679688 C 11.648438 -1.792969 11.785156 -1.933594 11.898438 -2.101562 L 11.898438 0 Z M 13.859375 0 "/></g></g></g><g fill="#ffffff" fill-opacity="1"><g transform="translate(484.854761, 510.397458)"><g><path d="M 4.058594 0 L 4.058594 -2.101562 C 4.144531 -1.933594 4.285156 -1.792969 4.394531 -1.679688 C 5.570312 -0.363281 7 0.28125 8.707031 0.28125 C 10.386719 0.28125 11.816406 -0.363281 12.992188 -1.679688 C 14.109375 -2.941406 14.699219 -4.421875 14.699219 -6.160156 C 14.699219 -7.867188 14.109375 -9.351562 12.992188 -10.640625 C 11.816406 -11.925781 10.386719 -12.597656 8.707031 -12.597656 C 7 -12.597656 5.570312 -11.925781 4.394531 -10.640625 C 4.285156 -10.5 4.144531 -10.359375 4.058594 -10.191406 L 4.058594 -21 L 2.101562 -21 L 2.101562 0 Z M 12.738281 -6.160156 C 12.738281 -4.957031 12.320312 -3.890625 11.480469 -3.023438 C 10.640625 -2.128906 9.601562 -1.679688 8.398438 -1.679688 C 7.167969 -1.679688 6.132812 -2.128906 5.292969 -3.023438 C 4.453125 -3.890625 4.058594 -4.957031 4.058594 -6.160156 C 4.058594 -7.335938 4.453125 -8.398438 5.292969 -9.296875 C 6.132812 -10.191406 7.167969 -10.640625 8.398438 -10.640625 C 9.601562 -10.640625 10.640625 -10.191406 11.480469 -9.296875 C 12.320312 -8.398438 12.738281 -7.335938 12.738281 -6.160156 Z M 12.738281 -6.160156 "/></g></g></g></svg>